<?xml version="1.0" encoding="iso-8859-1"?>
<!-- Generator: Adobe Illustrator 19.0.0, SVG Export Plug-In . SVG Version: 6.00 Build 0)  -->
<svg xmlns="http://www.w3.org/2000/svg" xmlns:xlink="http://www.w3.org/1999/xlink" version="1.1" id="Layer_1" x="0px" y="0px" viewBox="0 0 512 512" style="enable-background:new 0 0 512 512;" xml:space="preserve">
<path d="M483.248,44.88C499.056,44.88,512,57.824,512,73.632v25.44H0v-25.44C0,57.824,12.944,44.88,28.752,44.88  C28.752,44.88,483.248,44.88,483.248,44.88z"/>
<g style="opacity:0.25;">
	<path style="fill:#FFFFFF;" d="M28.752,44.88C12.944,44.88,0,57.824,0,73.632v25.44h115.888L147.04,44.88H28.752z"/>
</g>
<rect x="8" y="107.12" style="fill:#FFFFFF;" width="496" height="352"/>
<path style="fill:#EFEFEF;" d="M496,115.12v336H16v-336L496,115.12 M512,99.12H0v368h512V99.12L512,99.12z"/>
<path style="fill:#E0E0E0;" d="M488,123.12v320H24v-320L488,123.12 M492,119.12H20v328h472V119.12L492,119.12z"/>
<circle style="fill:#F91E1E;" cx="40.528" cy="71.968" r="8.192"/>
<circle style="fill:#999999;" cx="65.088" cy="71.968" r="8.192"/>
<circle style="fill:#CCCCCC;" cx="89.648" cy="71.968" r="8.192"/>
<path style="fill:#FFFFFF;" d="M428.256,86.352H170.88c-7.904,0-14.384-6.464-14.384-14.384l0,0c0-7.904,6.464-14.384,14.384-14.384  h257.376c7.904,0,14.384,6.464,14.384,14.384l0,0C442.624,79.888,436.16,86.352,428.256,86.352z"/>
<path d="M180.576,65.072l1.968,7.568c0.432,1.664,0.832,3.2,1.104,4.752h0.096c0.336-1.52,0.832-3.104,1.328-4.72l2.432-7.6h2.288  l2.304,7.456c0.56,1.776,0.992,3.344,1.328,4.864h0.096c0.24-1.52,0.656-3.072,1.136-4.832l2.112-7.488h2.672l-4.8,14.896h-2.464  l-2.288-7.104c-0.528-1.664-0.96-3.136-1.328-4.896h-0.064c-0.368,1.776-0.832,3.328-1.344,4.928l-2.4,7.072h-2.464l-4.496-14.896  C177.792,65.072,180.576,65.072,180.576,65.072z"/>
<path d="M203.552,65.072l1.968,7.568c0.432,1.664,0.832,3.2,1.104,4.752h0.096c0.336-1.52,0.832-3.104,1.328-4.72l2.432-7.6h2.288  l2.304,7.456c0.56,1.776,0.992,3.344,1.328,4.864h0.096c0.24-1.52,0.656-3.072,1.136-4.832l2.112-7.488h2.656l-4.8,14.896h-2.464  l-2.288-7.104c-0.528-1.664-0.96-3.136-1.328-4.896h-0.064c-0.368,1.776-0.832,3.328-1.344,4.928l-2.4,7.072h-2.432l-4.496-14.896  C200.784,65.072,203.552,65.072,203.552,65.072z"/>
<path d="M226.512,65.072l1.968,7.568c0.432,1.664,0.832,3.2,1.104,4.752h0.096c0.336-1.52,0.832-3.104,1.328-4.72l2.432-7.6h2.288  l2.304,7.456c0.56,1.776,0.992,3.344,1.328,4.864h0.096c0.24-1.52,0.656-3.072,1.136-4.832l2.112-7.488h2.672l-4.8,14.896h-2.464  l-2.272-7.12c-0.528-1.664-0.96-3.136-1.328-4.896h-0.064c-0.368,1.776-0.832,3.328-1.344,4.928l-2.4,7.072h-2.464l-4.496-14.896  h2.768V65.072z"/>
<path d="M246.192,78.368c0-1.136,0.768-1.936,1.84-1.936s1.808,0.8,1.808,1.936c0,1.104-0.704,1.936-1.84,1.936  C246.928,80.304,246.192,79.472,246.192,78.368z"/>
<g>
	<rect x="461.328" y="70.336" style="fill:#CCCCCC;" width="23.008" height="4"/>
	<polygon style="fill:#CCCCCC;" points="474.592,84.288 471.744,81.44 480.864,72.336 471.744,63.248 474.592,60.4 486.512,72.336     "/>
</g>
<polygon style="fill:#999999;" points="429.824,67.328 422.16,77.232 414.512,67.328 "/>
<path style="fill:#F91E1E;" d="M163.68,152.016c15.152,0,27.472,12.32,27.472,27.472s-12.32,27.472-27.472,27.472  s-27.472-12.32-27.472-27.472C136.224,164.336,148.544,152.016,163.68,152.016"/>
<path d="M194.048,225.904l-30.352,22.88l-30.352-22.88c-37.36,11.216-36.896,49.04-36.896,49.04h67.264l0,0h67.264  C230.944,274.944,231.408,237.12,194.048,225.904z"/>
<path style="fill:#F91E1E;" d="M348.32,290.192c15.152,0,27.472,12.32,27.472,27.472s-12.32,27.472-27.472,27.472  c-15.152,0-27.472-12.32-27.472-27.472C320.848,302.512,333.168,290.192,348.32,290.192"/>
<path d="M378.672,364.08l-30.352,22.88l-30.352-22.88c-37.36,11.216-36.896,49.04-36.896,49.04h67.264l0,0H415.6  C415.568,413.12,416.032,375.296,378.672,364.08z"/>
<g>
	<rect x="104.688" y="325.424" style="fill:#C9C9C9;" width="117.984" height="8"/>
	<rect x="104.688" y="361.856" style="fill:#C9C9C9;" width="118" height="8"/>
	<rect x="289.28" y="187.248" style="fill:#C9C9C9;" width="118" height="8"/>
	<rect x="289.28" y="223.68" style="fill:#C9C9C9;" width="118" height="8"/>
</g>
<g>
</g>
<g>
</g>
<g>
</g>
<g>
</g>
<g>
</g>
<g>
</g>
<g>
</g>
<g>
</g>
<g>
</g>
<g>
</g>
<g>
</g>
<g>
</g>
<g>
</g>
<g>
</g>
<g>
</g>
</svg>
