<?xml version="1.0" encoding="iso-8859-1"?>
<!-- Generator: Adobe Illustrator 19.0.0, SVG Export Plug-In . SVG Version: 6.00 Build 0)  -->
<svg xmlns="http://www.w3.org/2000/svg" xmlns:xlink="http://www.w3.org/1999/xlink" version="1.1" id="Layer_1" x="0px" y="0px" viewBox="0 0 512 512" style="enable-background:new 0 0 512 512;" xml:space="preserve">
<path d="M483.248,44.88C499.056,44.88,512,57.824,512,73.632v25.44H0v-25.44C0,57.824,12.944,44.88,28.752,44.88  C28.752,44.88,483.248,44.88,483.248,44.88z"/>
<g style="opacity:0.25;">
	<path style="fill:#FFFFFF;" d="M28.752,44.88C12.944,44.88,0,57.824,0,73.632v25.44h115.888L147.04,44.88H28.752z"/>
</g>
<rect x="8" y="107.12" style="fill:#FFFFFF;" width="496" height="352"/>
<path style="fill:#EFEFEF;" d="M496,115.12v336H16v-336L496,115.12 M512,99.12H0v368h512V99.12L512,99.12z"/>
<path style="fill:#E0E0E0;" d="M488,123.12v320H24v-320L488,123.12 M492,119.12H20v328h472V119.12L492,119.12z"/>
<circle style="fill:#F91E1E;" cx="40.528" cy="71.968" r="8.192"/>
<circle style="fill:#999999;" cx="65.088" cy="71.968" r="8.192"/>
<circle style="fill:#CCCCCC;" cx="89.648" cy="71.968" r="8.192"/>
<path style="fill:#FFFFFF;" d="M428.256,86.352H170.88c-7.904,0-14.384-6.464-14.384-14.384l0,0c0-7.904,6.464-14.384,14.384-14.384  h257.376c7.904,0,14.384,6.464,14.384,14.384l0,0C442.624,79.888,436.16,86.352,428.256,86.352z"/>
<path d="M180.576,65.072l1.968,7.568c0.432,1.664,0.832,3.2,1.104,4.752h0.096c0.336-1.52,0.832-3.104,1.328-4.72l2.432-7.6h2.288  l2.304,7.456c0.56,1.776,0.992,3.344,1.328,4.864h0.096c0.24-1.52,0.656-3.072,1.136-4.832l2.112-7.488h2.672l-4.8,14.896h-2.464  l-2.288-7.104c-0.528-1.664-0.96-3.136-1.328-4.896h-0.064c-0.368,1.776-0.832,3.328-1.344,4.928l-2.4,7.072h-2.464l-4.496-14.896  C177.792,65.072,180.576,65.072,180.576,65.072z"/>
<path d="M203.552,65.072l1.968,7.568c0.432,1.664,0.832,3.2,1.104,4.752h0.096c0.336-1.52,0.832-3.104,1.328-4.72l2.432-7.6h2.288  l2.304,7.456c0.56,1.776,0.992,3.344,1.328,4.864h0.096c0.24-1.52,0.656-3.072,1.136-4.832l2.112-7.488h2.656l-4.8,14.896h-2.464  l-2.288-7.104c-0.528-1.664-0.96-3.136-1.328-4.896h-0.064c-0.368,1.776-0.832,3.328-1.344,4.928l-2.4,7.072h-2.432l-4.496-14.896  C200.784,65.072,203.552,65.072,203.552,65.072z"/>
<path d="M226.512,65.072l1.968,7.568c0.432,1.664,0.832,3.2,1.104,4.752h0.096c0.336-1.52,0.832-3.104,1.328-4.72l2.432-7.6h2.288  l2.304,7.456c0.56,1.776,0.992,3.344,1.328,4.864h0.096c0.24-1.52,0.656-3.072,1.136-4.832l2.112-7.488h2.672l-4.8,14.896h-2.464  l-2.272-7.12c-0.528-1.664-0.96-3.136-1.328-4.896h-0.064c-0.368,1.776-0.832,3.328-1.344,4.928l-2.4,7.072h-2.464l-4.496-14.896  h2.768V65.072z"/>
<path d="M246.192,78.368c0-1.136,0.768-1.936,1.84-1.936s1.808,0.8,1.808,1.936c0,1.104-0.704,1.936-1.84,1.936  C246.928,80.304,246.192,79.472,246.192,78.368z"/>
<g>
	<rect x="461.328" y="70.336" style="fill:#CCCCCC;" width="23.008" height="4"/>
	<polygon style="fill:#CCCCCC;" points="474.592,84.288 471.744,81.44 480.864,72.336 471.744,63.248 474.592,60.4 486.512,72.336     "/>
</g>
<polygon style="fill:#999999;" points="429.824,67.328 422.16,77.232 414.512,67.328 "/>
<g>
	<rect x="253.488" y="159.04" style="fill:#C9C9C9;" width="5.024" height="5.024"/>
	<path style="fill:#C9C9C9;" d="M258.512,386.208h-5.024v-10.096h5.024V386.208z M258.512,366.016h-5.024V355.92h5.024V366.016z    M258.512,345.824h-5.024v-10.096h5.024V345.824z M258.512,325.632h-5.024v-10.096h5.024V325.632z M258.512,305.44h-5.024v-10.096   h5.024V305.44z M258.512,285.232h-5.024v-10.096h5.024V285.232z M258.512,265.04h-5.024v-10.096h5.024V265.04z M258.512,244.848   h-5.024v-10.096h5.024V244.848z M258.512,224.656h-5.024V214.56h5.024V224.656z M258.512,204.464h-5.024v-10.096h5.024V204.464z    M258.512,184.272h-5.024v-10.096h5.024V184.272z"/>
	<rect x="253.488" y="396.304" style="fill:#C9C9C9;" width="5.024" height="5.024"/>
	<rect x="360.832" y="213.408" style="fill:#C9C9C9;" width="5.024" height="5.024"/>
	<path style="fill:#C9C9C9;" d="M365.856,322.384h-5.024v-10.4h5.024V322.384z M365.856,301.6h-5.024v-10.4h5.024V301.6z    M365.856,280.8h-5.024v-10.4h5.024V280.8z M365.856,260.016h-5.024v-10.4h5.024V260.016z M365.856,239.232h-5.024v-10.4h5.024   V239.232z"/>
	<rect x="360.832" y="332.784" style="fill:#C9C9C9;" width="5.024" height="5.024"/>
	<path style="fill:#C9C9C9;" d="M256,283.872l-4.656-2.816l2.608-4.304l2.048,1.232l3.968-2.4l2.608,4.304L256,283.872z    M242.736,275.856l-8.608-5.2l2.608-4.304l8.608,5.2L242.736,275.856z M271.184,274.704l-2.608-4.304l8.608-5.2l2.608,4.304   L271.184,274.704z M225.504,265.456l-8.608-5.2l2.608-4.304l8.608,5.2L225.504,265.456z M288.416,264.304L285.808,260l8.608-5.2   l2.608,4.304L288.416,264.304z M208.272,255.056l-8.624-5.2l2.592-4.304l8.624,5.2L208.272,255.056z M305.648,253.904l-2.608-4.304   l8.608-5.2l2.608,4.304L305.648,253.904z M191.04,244.656l-8.608-5.2l2.608-4.304l8.608,5.2L191.04,244.656z M322.88,243.488   l-2.608-4.304l8.608-5.2l2.608,4.304L322.88,243.488z M173.808,234.256l-8.624-5.2l2.608-4.304l8.624,5.2L173.808,234.256z    M340.096,233.088l-2.592-4.304l8.624-5.2l2.592,4.304L340.096,233.088z M156.576,223.856l-8.608-5.2l1.088-1.792l-1.568-2.96   l8.896-4.72l2.352,4.448l-4.96,2.64l5.424,3.28L156.576,223.856z M357.344,222.688l-2.608-4.304l7.312-4.416l0.384,0.624   l0.752-1.408l5.28,2.8L357.344,222.688z M351.92,212.912l-8.896-4.72l2.352-4.448l8.896,4.72L351.92,212.912z M167.616,208.912   l-2.352-4.448l8.896-4.72l2.352,4.448L167.616,208.912z M334.144,203.488l-8.896-4.72l2.352-4.448l8.896,4.72L334.144,203.488z    M185.392,199.472l-2.352-4.432l8.896-4.72l2.352,4.448L185.392,199.472z M316.368,194.048l-8.896-4.72l2.352-4.448l8.896,4.72   L316.368,194.048z M203.168,190.048l-2.352-4.448l8.896-4.72l2.352,4.448L203.168,190.048z M298.592,184.608l-8.88-4.72   l2.352-4.448l8.88,4.72L298.592,184.608z M220.944,180.608l-2.352-4.448l8.896-4.72l2.352,4.448L220.944,180.608z M280.816,175.168   l-8.896-4.72l2.352-4.448l8.896,4.72L280.816,175.168z M238.736,171.168l-2.352-4.448l8.896-4.72l2.352,4.448L238.736,171.168z    M263.04,165.728l-8.208-4.352l0.752-1.408l-1.424-2.672l1.84-0.992l9.408,4.992L263.04,165.728z"/>
	<path style="fill:#C9C9C9;" d="M256,405.632l-4.656-2.816l2.592-4.304L256,399.76l3.968-2.384l2.592,4.304L256,405.632z    M242.736,397.632l-8.608-5.2l2.608-4.304l8.608,5.2L242.736,397.632z M271.184,396.464l-2.608-4.304l8.608-5.2l2.608,4.304   L271.184,396.464z M225.504,387.216l-8.624-5.2l2.608-4.304l8.624,5.2L225.504,387.216z M288.416,386.064l-2.608-4.304l8.608-5.2   l2.608,4.304L288.416,386.064z M208.272,376.816l-8.608-5.2l2.608-4.304l8.608,5.2L208.272,376.816z M305.648,375.664l-2.608-4.304   l8.624-5.2l2.608,4.304L305.648,375.664z M191.04,366.416l-8.608-5.2l2.608-4.304l8.608,5.2L191.04,366.416z M322.88,365.264   l-2.608-4.304l8.608-5.2l2.608,4.304L322.88,365.264z M173.808,356.016l-8.624-5.2l2.592-4.304l8.624,5.2L173.808,356.016z    M340.112,354.864l-2.608-4.304l8.608-5.2l2.608,4.304L340.112,354.864z M156.576,345.616l-8.608-5.2l1.088-1.792l-1.568-2.944   l8.896-4.72l2.352,4.448l-4.96,2.64l5.424,3.28L156.576,345.616z M357.328,344.464l-2.608-4.304l7.312-4.416l0.384,0.624   l0.752-1.408l5.28,2.8L357.328,344.464z M351.936,334.688l-8.896-4.72l2.352-4.448l8.896,4.72L351.936,334.688z M167.616,330.688   l-2.352-4.448l8.896-4.72l2.352,4.448L167.616,330.688z M334.144,325.248l-8.896-4.72l2.352-4.448l8.896,4.72L334.144,325.248z    M185.392,321.248l-2.352-4.448l8.896-4.72l2.352,4.448L185.392,321.248z M316.368,315.824l-8.896-4.72l2.352-4.448l8.896,4.72   L316.368,315.824z M203.168,311.808l-2.352-4.448l8.896-4.72l2.352,4.448L203.168,311.808z M298.592,306.384l-8.896-4.72   l2.352-4.448l8.896,4.72L298.592,306.384z M220.944,302.384l-2.352-4.448l8.896-4.72l2.352,4.448L220.944,302.384z    M280.816,296.944l-8.896-4.72l2.352-4.448l8.896,4.72L280.816,296.944z M238.736,292.944l-2.352-4.448l8.896-4.72l2.352,4.448   L238.736,292.944z M263.04,287.504l-8.208-4.352l0.752-1.408l-1.424-2.672l1.84-0.992l9.408,4.992L263.04,287.504z"/>
</g>
<g>
	<circle style="fill:#F91E1E;" cx="363.344" cy="213.68" r="13.696"/>
	<circle style="fill:#F91E1E;" cx="363.344" cy="337.92" r="13.696"/>
</g>
<g>
	<rect x="146.144" y="213.408" style="fill:#C9C9C9;" width="5.024" height="5.024"/>
	<path style="fill:#C9C9C9;" d="M151.168,322.384h-5.024v-10.4h5.024V322.384z M151.168,301.6h-5.024v-10.4h5.024V301.6z    M151.168,280.8h-5.024v-10.4h5.024V280.8z M151.168,260.016h-5.024v-10.4h5.024V260.016z M151.168,239.232h-5.024v-10.4h5.024   V239.232z"/>
	<rect x="146.144" y="332.784" style="fill:#C9C9C9;" width="5.024" height="5.024"/>
</g>
<g>
	<circle style="fill:#F91E1E;" cx="148.656" cy="213.68" r="13.696"/>
	<circle style="fill:#F91E1E;" cx="148.656" cy="337.92" r="13.696"/>
	<circle style="fill:#F91E1E;" cx="256" cy="280.192" r="13.696"/>
	<circle style="fill:#F91E1E;" cx="256" cy="157.648" r="13.696"/>
	<circle style="fill:#F91E1E;" cx="256" cy="402.72" r="13.696"/>
</g>
<g>
</g>
<g>
</g>
<g>
</g>
<g>
</g>
<g>
</g>
<g>
</g>
<g>
</g>
<g>
</g>
<g>
</g>
<g>
</g>
<g>
</g>
<g>
</g>
<g>
</g>
<g>
</g>
<g>
</g>
</svg>
