<?xml version="1.0" encoding="iso-8859-1"?>
<!-- Generator: Adobe Illustrator 19.0.0, SVG Export Plug-In . SVG Version: 6.00 Build 0)  -->
<svg xmlns="http://www.w3.org/2000/svg" xmlns:xlink="http://www.w3.org/1999/xlink" version="1.1" id="Layer_1" x="0px" y="0px" viewBox="0 0 512 512" style="enable-background:new 0 0 512 512;" xml:space="preserve">
<path d="M483.248,44.88C499.056,44.88,512,57.824,512,73.632v25.44H0v-25.44C0,57.824,12.944,44.88,28.752,44.88  C28.752,44.88,483.248,44.88,483.248,44.88z"/>
<g style="opacity:0.25;">
	<path style="fill:#FFFFFF;" d="M28.752,44.88C12.944,44.88,0,57.824,0,73.632v25.44h115.888L147.04,44.88H28.752z"/>
</g>
<rect x="8" y="107.12" style="fill:#FFFFFF;" width="496" height="352"/>
<path style="fill:#EFEFEF;" d="M496,115.12v336H16v-336L496,115.12 M512,99.12H0v368h512V99.12L512,99.12z"/>
<path style="fill:#E0E0E0;" d="M488,123.12v320H24v-320L488,123.12 M492,119.12H20v328h472V119.12L492,119.12z"/>
<circle style="fill:#F91E1E;" cx="40.528" cy="71.968" r="8.192"/>
<circle style="fill:#999999;" cx="65.088" cy="71.968" r="8.192"/>
<circle style="fill:#CCCCCC;" cx="89.648" cy="71.968" r="8.192"/>
<path style="fill:#FFFFFF;" d="M428.256,86.352H170.88c-7.904,0-14.384-6.464-14.384-14.384l0,0c0-7.904,6.464-14.384,14.384-14.384  h257.376c7.904,0,14.384,6.464,14.384,14.384l0,0C442.624,79.888,436.16,86.352,428.256,86.352z"/>
<path d="M180.576,65.072l1.968,7.568c0.432,1.664,0.832,3.2,1.104,4.752h0.096c0.336-1.52,0.832-3.104,1.328-4.72l2.432-7.6h2.288  l2.304,7.456c0.56,1.776,0.992,3.344,1.328,4.864h0.096c0.24-1.52,0.656-3.072,1.136-4.832l2.112-7.488h2.672l-4.8,14.896h-2.464  l-2.288-7.104c-0.528-1.664-0.96-3.136-1.328-4.896h-0.064c-0.368,1.776-0.832,3.328-1.344,4.928l-2.4,7.072h-2.464l-4.496-14.896  C177.792,65.072,180.576,65.072,180.576,65.072z"/>
<path d="M203.552,65.072l1.968,7.568c0.432,1.664,0.832,3.2,1.104,4.752h0.096c0.336-1.52,0.832-3.104,1.328-4.72l2.432-7.6h2.288  l2.304,7.456c0.56,1.776,0.992,3.344,1.328,4.864h0.096c0.24-1.52,0.656-3.072,1.136-4.832l2.112-7.488h2.656l-4.8,14.896h-2.464  l-2.288-7.104c-0.528-1.664-0.96-3.136-1.328-4.896h-0.064c-0.368,1.776-0.832,3.328-1.344,4.928l-2.4,7.072h-2.432l-4.496-14.896  C200.784,65.072,203.552,65.072,203.552,65.072z"/>
<path d="M226.512,65.072l1.968,7.568c0.432,1.664,0.832,3.2,1.104,4.752h0.096c0.336-1.52,0.832-3.104,1.328-4.72l2.432-7.6h2.288  l2.304,7.456c0.56,1.776,0.992,3.344,1.328,4.864h0.096c0.24-1.52,0.656-3.072,1.136-4.832l2.112-7.488h2.672l-4.8,14.896h-2.464  l-2.272-7.12c-0.528-1.664-0.96-3.136-1.328-4.896h-0.064c-0.368,1.776-0.832,3.328-1.344,4.928l-2.4,7.072h-2.464l-4.496-14.896  h2.768V65.072z"/>
<path d="M246.192,78.368c0-1.136,0.768-1.936,1.84-1.936s1.808,0.8,1.808,1.936c0,1.104-0.704,1.936-1.84,1.936  C246.928,80.304,246.192,79.472,246.192,78.368z"/>
<g>
	<rect x="461.328" y="70.336" style="fill:#CCCCCC;" width="23.008" height="4"/>
	<polygon style="fill:#CCCCCC;" points="474.592,84.288 471.744,81.44 480.864,72.336 471.744,63.248 474.592,60.4 486.512,72.336     "/>
</g>
<polygon style="fill:#999999;" points="429.824,67.328 422.16,77.232 414.512,67.328 "/>
<path d="M303.616,378.048c-17.12,9.024-34.544,12.432-55.376,12.432c-51.04,0-94.288-37.344-94.288-97.088  c0-64.08,44.496-119.488,113.568-119.488c54.144,0,90.544,37.984,90.544,89.936c0,46.672-26.128,74.048-55.376,74.048  c-12.432,0-23.952-8.416-23.024-27.392H278.4c-10.896,18.368-25.2,27.392-43.872,27.392c-18.048,0-33.6-14.624-33.6-39.216  c0-38.592,30.496-73.728,73.744-73.728c13.392,0,25.216,2.784,33.296,6.544l-10.592,56.288c-4.656,23.664-0.928,34.56,9.344,34.864  c15.872,0.304,33.6-20.848,33.6-56.96c0-45.104-27.072-77.472-75.296-77.472c-50.72,0-93.344,40.16-93.344,103.312  c0,51.968,33.92,84.016,79.968,84.016c17.728,0,34.224-3.744,46.992-10.896L303.616,378.048z M286.496,243.648  c-3.12-0.944-8.4-2.176-15.552-2.176c-27.392,0-49.472,25.824-49.472,55.984c0,13.712,6.848,23.664,20.528,23.664  c18.048,0,34.544-23.024,37.968-42.336L286.496,243.648z"/>
<g>
</g>
<g>
</g>
<g>
</g>
<g>
</g>
<g>
</g>
<g>
</g>
<g>
</g>
<g>
</g>
<g>
</g>
<g>
</g>
<g>
</g>
<g>
</g>
<g>
</g>
<g>
</g>
<g>
</g>
</svg>
